<svg xmlns="http://www.w3.org/2000/svg" xmlns:xlink="http://www.w3.org/1999/xlink" width="150" zoomAndPan="magnify" viewBox="0 0 112.5 74.999997" height="100" preserveAspectRatio="xMidYMid meet" version="1.0"><defs><g/><clipPath id="2319bd0ca2"><path d="M 38.035156 26.328125 L 43.28125 26.328125 L 43.28125 34.855469 L 38.035156 34.855469 Z M 38.035156 26.328125 " clip-rule="nonzero"/></clipPath><clipPath id="de4a6a8b2c"><path d="M 56 26.328125 L 73.894531 26.328125 L 73.894531 34.855469 L 56 34.855469 Z M 56 26.328125 " clip-rule="nonzero"/></clipPath></defs><g fill="#ffffff" fill-opacity="1"><g transform="translate(27.330081, 43.185472)"><g><path d="M 6.609375 -26.1875 L 6.609375 -27.59375 L 19.984375 -27.59375 L 19.984375 -26.1875 C 17.941406 -26.15625 16.691406 -25.96875 16.234375 -25.625 C 15.785156 -25.289062 15.5625 -24.585938 15.5625 -23.515625 L 15.5625 -7.90625 C 15.5625 -5.113281 14.835938 -2.941406 13.390625 -1.390625 C 11.941406 0.148438 9.910156 0.921875 7.296875 0.921875 C 5.335938 0.921875 3.757812 0.398438 2.5625 -0.640625 C 1.363281 -1.679688 0.765625 -3.046875 0.765625 -4.734375 C 0.765625 -5.878906 1.085938 -6.828125 1.734375 -7.578125 C 2.378906 -8.335938 3.1875 -8.71875 4.15625 -8.71875 C 4.84375 -8.71875 5.414062 -8.46875 5.875 -7.96875 C 6.332031 -7.46875 6.5625 -6.851562 6.5625 -6.125 C 6.5625 -5.414062 6.328125 -4.828125 5.859375 -4.359375 C 5.398438 -3.898438 4.8125 -3.671875 4.09375 -3.671875 C 4 -3.671875 3.820312 -3.695312 3.5625 -3.75 C 3.300781 -3.800781 3.097656 -3.828125 2.953125 -3.828125 C 2.785156 -3.828125 2.671875 -3.789062 2.609375 -3.71875 C 2.546875 -3.644531 2.515625 -3.5 2.515625 -3.28125 C 2.515625 -2.601562 2.945312 -1.957031 3.8125 -1.34375 C 4.675781 -0.726562 5.6875 -0.421875 6.84375 -0.421875 C 8.5 -0.421875 9.710938 -0.953125 10.484375 -2.015625 C 11.265625 -3.085938 11.65625 -4.785156 11.65625 -7.109375 L 11.65625 -23.515625 C 11.65625 -24.617188 11.40625 -25.335938 10.90625 -25.671875 C 10.414062 -26.015625 8.984375 -26.1875 6.609375 -26.1875 Z M 6.609375 -26.1875 "/></g></g></g><g fill="#ffffff" fill-opacity="1"><g transform="translate(51.184753, 43.185472)"><g><path d="M 8.484375 -10.859375 L 16.8125 -10.859375 L 12.65625 -23.125 Z M -0.21875 0 L -0.21875 -1.421875 L -0.109375 -1.421875 C 1.160156 -1.421875 2.175781 -1.742188 2.9375 -2.390625 C 3.707031 -3.035156 4.367188 -4.148438 4.921875 -5.734375 L 12.84375 -28.125 L 14.875 -28.125 L 23.046875 -4.3125 C 23.429688 -3.175781 23.945312 -2.410156 24.59375 -2.015625 C 25.25 -1.617188 26.289062 -1.421875 27.71875 -1.421875 L 27.71875 0 L 15.140625 0 L 15.140625 -1.421875 L 16.625 -1.5 C 17.769531 -1.5625 18.519531 -1.6875 18.875 -1.875 C 19.226562 -2.070312 19.40625 -2.40625 19.40625 -2.875 C 19.40625 -3 19.394531 -3.125 19.375 -3.25 C 19.363281 -3.375 19.335938 -3.492188 19.296875 -3.609375 L 17.4375 -9.046875 L 7.875 -9.046875 L 6.71875 -5.65625 C 6.582031 -5.226562 6.476562 -4.851562 6.40625 -4.53125 C 6.34375 -4.21875 6.3125 -3.957031 6.3125 -3.75 C 6.3125 -2.957031 6.597656 -2.367188 7.171875 -1.984375 C 7.753906 -1.609375 8.660156 -1.421875 9.890625 -1.421875 L 10.09375 -1.421875 L 10.09375 0 Z M -0.21875 0 "/></g></g></g><g clip-path="url(#2319bd0ca2)"><path fill="#000029" d="M 38.035156 26.328125 L 43.28125 26.328125 L 43.28125 34.855469 L 38.035156 34.855469 Z M 38.035156 26.328125 " fill-opacity="1" fill-rule="nonzero"/></g><g clip-path="url(#de4a6a8b2c)"><path fill="#000029" d="M 56 26.328125 L 73.886719 26.328125 L 73.886719 34.855469 L 56 34.855469 Z M 56 26.328125 " fill-opacity="1" fill-rule="nonzero"/></g><g fill="#ffffff" fill-opacity="1"><g transform="translate(23.102884, 32.895417)"><g><path d="M 1.3125 0.046875 C 1.03125 0.046875 0.769531 -0.0078125 0.53125 -0.125 C 0.300781 -0.25 0.113281 -0.425781 -0.03125 -0.65625 L 0.265625 -1 C 0.535156 -0.601562 0.890625 -0.40625 1.328125 -0.40625 C 1.921875 -0.40625 2.21875 -0.757812 2.21875 -1.46875 L 2.21875 -4.421875 L 0.4375 -4.421875 L 0.4375 -4.875 L 2.734375 -4.875 L 2.734375 -1.5 C 2.734375 -0.988281 2.613281 -0.601562 2.375 -0.34375 C 2.132812 -0.0820312 1.78125 0.046875 1.3125 0.046875 Z M 1.3125 0.046875 "/></g></g></g><g fill="#ffffff" fill-opacity="1"><g transform="translate(28.537598, 32.895417)"><g><path d="M 2.921875 0.046875 C 2.441406 0.046875 2.003906 -0.0625 1.609375 -0.28125 C 1.210938 -0.5 0.90625 -0.796875 0.6875 -1.171875 C 0.46875 -1.546875 0.359375 -1.96875 0.359375 -2.4375 C 0.359375 -2.90625 0.46875 -3.328125 0.6875 -3.703125 C 0.90625 -4.078125 1.210938 -4.367188 1.609375 -4.578125 C 2.003906 -4.796875 2.441406 -4.90625 2.921875 -4.90625 C 3.398438 -4.90625 3.832031 -4.796875 4.21875 -4.578125 C 4.613281 -4.367188 4.921875 -4.078125 5.140625 -3.703125 C 5.359375 -3.328125 5.46875 -2.90625 5.46875 -2.4375 C 5.46875 -1.96875 5.359375 -1.539062 5.140625 -1.15625 C 4.921875 -0.78125 4.613281 -0.484375 4.21875 -0.265625 C 3.832031 -0.0546875 3.398438 0.046875 2.921875 0.046875 Z M 2.921875 -0.421875 C 3.304688 -0.421875 3.648438 -0.503906 3.953125 -0.671875 C 4.265625 -0.847656 4.507812 -1.085938 4.6875 -1.390625 C 4.863281 -1.703125 4.953125 -2.050781 4.953125 -2.4375 C 4.953125 -2.8125 4.863281 -3.148438 4.6875 -3.453125 C 4.507812 -3.765625 4.265625 -4.007812 3.953125 -4.1875 C 3.648438 -4.363281 3.304688 -4.453125 2.921875 -4.453125 C 2.535156 -4.453125 2.1875 -4.363281 1.875 -4.1875 C 1.5625 -4.007812 1.316406 -3.765625 1.140625 -3.453125 C 0.960938 -3.148438 0.875 -2.8125 0.875 -2.4375 C 0.875 -2.050781 0.960938 -1.703125 1.140625 -1.390625 C 1.316406 -1.085938 1.5625 -0.847656 1.875 -0.671875 C 2.1875 -0.503906 2.535156 -0.421875 2.921875 -0.421875 Z M 2.921875 -0.421875 "/></g></g></g><g fill="#ffffff" fill-opacity="1"><g transform="translate(36.324193, 32.895417)"><g><path d="M 4.234375 -0.4375 L 4.234375 0 L 0.796875 0 L 0.796875 -4.875 L 4.125 -4.875 L 4.125 -4.421875 L 1.3125 -4.421875 L 1.3125 -2.6875 L 3.828125 -2.6875 L 3.828125 -2.25 L 1.3125 -2.25 L 1.3125 -0.4375 Z M 4.234375 -0.4375 "/></g></g></g><g fill="#ffffff" fill-opacity="1"><g transform="translate(42.927889, 32.895417)"><g/></g></g><g fill="#ffffff" fill-opacity="1"><g transform="translate(46.699587, 32.895417)"><g><path d="M 3.84375 -1.296875 L 1.140625 -1.296875 L 0.546875 0 L 0.015625 0 L 2.234375 -4.875 L 2.75 -4.875 L 4.96875 0 L 4.421875 0 Z M 3.65625 -1.71875 L 2.484375 -4.328125 L 1.328125 -1.71875 Z M 3.65625 -1.71875 "/></g></g></g><g fill="#ffffff" fill-opacity="1"><g transform="translate(53.637278, 32.895417)"><g><path d="M 4.21875 -2.4375 L 4.71875 -2.4375 L 4.71875 -0.578125 C 4.488281 -0.378906 4.21875 -0.222656 3.90625 -0.109375 C 3.59375 -0.00390625 3.265625 0.046875 2.921875 0.046875 C 2.441406 0.046875 2.003906 -0.0546875 1.609375 -0.265625 C 1.222656 -0.484375 0.914062 -0.78125 0.6875 -1.15625 C 0.46875 -1.539062 0.359375 -1.96875 0.359375 -2.4375 C 0.359375 -2.90625 0.46875 -3.328125 0.6875 -3.703125 C 0.914062 -4.078125 1.222656 -4.367188 1.609375 -4.578125 C 2.003906 -4.796875 2.445312 -4.90625 2.9375 -4.90625 C 3.300781 -4.90625 3.640625 -4.84375 3.953125 -4.71875 C 4.265625 -4.601562 4.523438 -4.429688 4.734375 -4.203125 L 4.421875 -3.875 C 4.035156 -4.257812 3.546875 -4.453125 2.953125 -4.453125 C 2.554688 -4.453125 2.195312 -4.363281 1.875 -4.1875 C 1.5625 -4.007812 1.316406 -3.765625 1.140625 -3.453125 C 0.960938 -3.148438 0.875 -2.8125 0.875 -2.4375 C 0.875 -2.050781 0.960938 -1.707031 1.140625 -1.40625 C 1.316406 -1.101562 1.5625 -0.863281 1.875 -0.6875 C 2.195312 -0.507812 2.554688 -0.421875 2.953125 -0.421875 C 3.453125 -0.421875 3.875 -0.546875 4.21875 -0.796875 Z M 4.21875 -2.4375 "/></g></g></g><g fill="#ffffff" fill-opacity="1"><g transform="translate(60.96463, 32.895417)"><g><path d="M 2.75 0.046875 C 2.125 0.046875 1.632812 -0.132812 1.28125 -0.5 C 0.925781 -0.863281 0.75 -1.390625 0.75 -2.078125 L 0.75 -4.875 L 1.265625 -4.875 L 1.265625 -2.09375 C 1.265625 -1.53125 1.390625 -1.109375 1.640625 -0.828125 C 1.898438 -0.554688 2.269531 -0.421875 2.75 -0.421875 C 3.238281 -0.421875 3.609375 -0.554688 3.859375 -0.828125 C 4.117188 -1.109375 4.25 -1.53125 4.25 -2.09375 L 4.25 -4.875 L 4.75 -4.875 L 4.75 -2.078125 C 4.75 -1.390625 4.570312 -0.863281 4.21875 -0.5 C 3.875 -0.132812 3.382812 0.046875 2.75 0.046875 Z M 2.75 0.046875 "/></g></g></g><g fill="#ffffff" fill-opacity="1"><g transform="translate(68.424188, 32.895417)"><g><path d="M 3.84375 -1.296875 L 1.140625 -1.296875 L 0.546875 0 L 0.015625 0 L 2.234375 -4.875 L 2.75 -4.875 L 4.96875 0 L 4.421875 0 Z M 3.65625 -1.71875 L 2.484375 -4.328125 L 1.328125 -1.71875 Z M 3.65625 -1.71875 "/></g></g></g><g fill="#ffffff" fill-opacity="1"><g transform="translate(75.361881, 32.895417)"><g><path d="M 0.796875 -4.875 L 2.78125 -4.875 C 3.289062 -4.875 3.742188 -4.769531 4.140625 -4.5625 C 4.535156 -4.351562 4.835938 -4.0625 5.046875 -3.6875 C 5.265625 -3.320312 5.375 -2.90625 5.375 -2.4375 C 5.375 -1.957031 5.265625 -1.535156 5.046875 -1.171875 C 4.835938 -0.804688 4.535156 -0.519531 4.140625 -0.3125 C 3.742188 -0.101562 3.289062 0 2.78125 0 L 0.796875 0 Z M 2.75 -0.4375 C 3.175781 -0.4375 3.546875 -0.519531 3.859375 -0.6875 C 4.179688 -0.863281 4.429688 -1.097656 4.609375 -1.390625 C 4.785156 -1.691406 4.875 -2.039062 4.875 -2.4375 C 4.875 -2.820312 4.785156 -3.164062 4.609375 -3.46875 C 4.429688 -3.769531 4.179688 -4.003906 3.859375 -4.171875 C 3.546875 -4.335938 3.175781 -4.421875 2.75 -4.421875 L 1.3125 -4.421875 L 1.3125 -0.4375 Z M 2.75 -0.4375 "/></g></g></g><g fill="#ffffff" fill-opacity="1"><g transform="translate(83.058018, 32.895417)"><g><path d="M 2.921875 0.046875 C 2.441406 0.046875 2.003906 -0.0625 1.609375 -0.28125 C 1.210938 -0.5 0.90625 -0.796875 0.6875 -1.171875 C 0.46875 -1.546875 0.359375 -1.96875 0.359375 -2.4375 C 0.359375 -2.90625 0.46875 -3.328125 0.6875 -3.703125 C 0.90625 -4.078125 1.210938 -4.367188 1.609375 -4.578125 C 2.003906 -4.796875 2.441406 -4.90625 2.921875 -4.90625 C 3.398438 -4.90625 3.832031 -4.796875 4.21875 -4.578125 C 4.613281 -4.367188 4.921875 -4.078125 5.140625 -3.703125 C 5.359375 -3.328125 5.46875 -2.90625 5.46875 -2.4375 C 5.46875 -1.96875 5.359375 -1.539062 5.140625 -1.15625 C 4.921875 -0.78125 4.613281 -0.484375 4.21875 -0.265625 C 3.832031 -0.0546875 3.398438 0.046875 2.921875 0.046875 Z M 2.921875 -0.421875 C 3.304688 -0.421875 3.648438 -0.503906 3.953125 -0.671875 C 4.265625 -0.847656 4.507812 -1.085938 4.6875 -1.390625 C 4.863281 -1.703125 4.953125 -2.050781 4.953125 -2.4375 C 4.953125 -2.8125 4.863281 -3.148438 4.6875 -3.453125 C 4.507812 -3.765625 4.265625 -4.007812 3.953125 -4.1875 C 3.648438 -4.363281 3.304688 -4.453125 2.921875 -4.453125 C 2.535156 -4.453125 2.1875 -4.363281 1.875 -4.1875 C 1.5625 -4.007812 1.316406 -3.765625 1.140625 -3.453125 C 0.960938 -3.148438 0.875 -2.8125 0.875 -2.4375 C 0.875 -2.050781 0.960938 -1.703125 1.140625 -1.390625 C 1.316406 -1.085938 1.5625 -0.847656 1.875 -0.671875 C 2.1875 -0.503906 2.535156 -0.421875 2.921875 -0.421875 Z M 2.921875 -0.421875 "/></g></g></g><g fill="#ffffff" fill-opacity="1"><g transform="translate(24.818183, 58.101949)"><g><path d="M 1.40625 0.09375 C 0.988281 0.09375 0.625 0.0234375 0.3125 -0.109375 C 0.0078125 -0.253906 -0.222656 -0.460938 -0.390625 -0.734375 L 0.453125 -1.53125 C 0.691406 -1.144531 1.015625 -0.953125 1.421875 -0.953125 C 1.910156 -0.953125 2.210938 -1.234375 2.328125 -1.796875 L 2.84375 -4.453125 L 0.9375 -4.453125 L 1.140625 -5.46875 L 4.3125 -5.46875 L 3.578125 -1.859375 C 3.441406 -1.160156 3.195312 -0.660156 2.84375 -0.359375 C 2.488281 -0.0546875 2.007812 0.09375 1.40625 0.09375 Z M 1.40625 0.09375 "/></g></g></g><g fill="#ffffff" fill-opacity="1"><g transform="translate(29.735835, 58.101949)"><g><path d="M 2.140625 0.09375 C 1.703125 0.09375 1.285156 0.0351562 0.890625 -0.078125 C 0.492188 -0.191406 0.175781 -0.335938 -0.0625 -0.515625 L 0.453125 -1.5 C 0.703125 -1.3125 0.984375 -1.164062 1.296875 -1.0625 C 1.609375 -0.96875 1.929688 -0.921875 2.265625 -0.921875 C 2.609375 -0.921875 2.878906 -0.976562 3.078125 -1.09375 C 3.285156 -1.207031 3.390625 -1.363281 3.390625 -1.5625 C 3.390625 -1.726562 3.304688 -1.851562 3.140625 -1.9375 C 2.984375 -2.019531 2.726562 -2.113281 2.375 -2.21875 C 2.019531 -2.320312 1.726562 -2.421875 1.5 -2.515625 C 1.28125 -2.609375 1.085938 -2.75 0.921875 -2.9375 C 0.765625 -3.132812 0.6875 -3.394531 0.6875 -3.71875 C 0.6875 -4.082031 0.785156 -4.40625 0.984375 -4.6875 C 1.191406 -4.96875 1.484375 -5.179688 1.859375 -5.328125 C 2.242188 -5.484375 2.6875 -5.5625 3.1875 -5.5625 C 3.550781 -5.5625 3.894531 -5.519531 4.21875 -5.4375 C 4.550781 -5.363281 4.835938 -5.25 5.078125 -5.09375 L 4.59375 -4.125 C 4.394531 -4.269531 4.164062 -4.375 3.90625 -4.4375 C 3.65625 -4.507812 3.390625 -4.546875 3.109375 -4.546875 C 2.753906 -4.546875 2.472656 -4.484375 2.265625 -4.359375 C 2.054688 -4.234375 1.953125 -4.070312 1.953125 -3.875 C 1.953125 -3.757812 1.992188 -3.660156 2.078125 -3.578125 C 2.171875 -3.492188 2.285156 -3.425781 2.421875 -3.375 C 2.554688 -3.332031 2.742188 -3.273438 2.984375 -3.203125 C 3.335938 -3.109375 3.625 -3.015625 3.84375 -2.921875 C 4.070312 -2.828125 4.265625 -2.6875 4.421875 -2.5 C 4.578125 -2.3125 4.65625 -2.066406 4.65625 -1.765625 C 4.65625 -1.390625 4.550781 -1.0625 4.34375 -0.78125 C 4.132812 -0.507812 3.835938 -0.296875 3.453125 -0.140625 C 3.078125 0.015625 2.640625 0.09375 2.140625 0.09375 Z M 2.140625 0.09375 "/></g></g></g><g fill="#ffffff" fill-opacity="1"><g transform="translate(35.411822, 58.101949)"><g/></g></g><g fill="#ffffff" fill-opacity="1"><g transform="translate(38.312454, 58.101949)"><g><path d="M 1.328125 -5.46875 L 3.609375 -5.46875 C 4.171875 -5.46875 4.648438 -5.375 5.046875 -5.1875 C 5.453125 -5.007812 5.765625 -4.75 5.984375 -4.40625 C 6.203125 -4.0625 6.3125 -3.65625 6.3125 -3.1875 C 6.3125 -2.550781 6.164062 -1.992188 5.875 -1.515625 C 5.59375 -1.035156 5.191406 -0.660156 4.671875 -0.390625 C 4.160156 -0.128906 3.570312 0 2.90625 0 L 0.234375 0 Z M 2.9375 -1.046875 C 3.363281 -1.046875 3.734375 -1.132812 4.046875 -1.3125 C 4.367188 -1.488281 4.613281 -1.734375 4.78125 -2.046875 C 4.945312 -2.367188 5.03125 -2.726562 5.03125 -3.125 C 5.03125 -3.53125 4.894531 -3.847656 4.625 -4.078125 C 4.363281 -4.316406 3.976562 -4.4375 3.46875 -4.4375 L 2.390625 -4.4375 L 1.703125 -1.046875 Z M 2.9375 -1.046875 "/></g></g></g><g fill="#ffffff" fill-opacity="1"><g transform="translate(45.458208, 58.101949)"><g><path d="M 4.71875 -2.421875 C 4.71875 -2.222656 4.691406 -2.007812 4.640625 -1.78125 L 1.421875 -1.78125 C 1.460938 -1.207031 1.828125 -0.921875 2.515625 -0.921875 C 2.722656 -0.921875 2.925781 -0.953125 3.125 -1.015625 C 3.320312 -1.085938 3.492188 -1.1875 3.640625 -1.3125 L 4.140625 -0.5 C 3.910156 -0.3125 3.644531 -0.171875 3.34375 -0.078125 C 3.039062 0.015625 2.722656 0.0625 2.390625 0.0625 C 1.953125 0.0625 1.570312 -0.015625 1.25 -0.171875 C 0.925781 -0.328125 0.675781 -0.546875 0.5 -0.828125 C 0.320312 -1.117188 0.234375 -1.453125 0.234375 -1.828125 C 0.234375 -2.285156 0.335938 -2.703125 0.546875 -3.078125 C 0.765625 -3.453125 1.0625 -3.742188 1.4375 -3.953125 C 1.8125 -4.160156 2.238281 -4.265625 2.71875 -4.265625 C 3.125 -4.265625 3.472656 -4.1875 3.765625 -4.03125 C 4.066406 -3.882812 4.300781 -3.671875 4.46875 -3.390625 C 4.632812 -3.109375 4.71875 -2.785156 4.71875 -2.421875 Z M 2.65625 -3.359375 C 2.375 -3.359375 2.132812 -3.28125 1.9375 -3.125 C 1.738281 -2.96875 1.597656 -2.753906 1.515625 -2.484375 L 3.59375 -2.484375 C 3.59375 -2.753906 3.507812 -2.96875 3.34375 -3.125 C 3.175781 -3.28125 2.945312 -3.359375 2.65625 -3.359375 Z M 2.65625 -3.359375 "/></g></g></g><g fill="#ffffff" fill-opacity="1"><g transform="translate(51.056016, 58.101949)"><g><path d="M 5.15625 -4.203125 L 2.546875 0 L 1.296875 0 L 0.359375 -4.203125 L 1.5625 -4.203125 L 2.171875 -1.34375 L 3.9375 -4.203125 Z M 5.15625 -4.203125 "/></g></g></g><g fill="#ffffff" fill-opacity="1"><g transform="translate(56.419288, 58.101949)"><g><path d="M 4.71875 -2.421875 C 4.71875 -2.222656 4.691406 -2.007812 4.640625 -1.78125 L 1.421875 -1.78125 C 1.460938 -1.207031 1.828125 -0.921875 2.515625 -0.921875 C 2.722656 -0.921875 2.925781 -0.953125 3.125 -1.015625 C 3.320312 -1.085938 3.492188 -1.1875 3.640625 -1.3125 L 4.140625 -0.5 C 3.910156 -0.3125 3.644531 -0.171875 3.34375 -0.078125 C 3.039062 0.015625 2.722656 0.0625 2.390625 0.0625 C 1.953125 0.0625 1.570312 -0.015625 1.25 -0.171875 C 0.925781 -0.328125 0.675781 -0.546875 0.5 -0.828125 C 0.320312 -1.117188 0.234375 -1.453125 0.234375 -1.828125 C 0.234375 -2.285156 0.335938 -2.703125 0.546875 -3.078125 C 0.765625 -3.453125 1.0625 -3.742188 1.4375 -3.953125 C 1.8125 -4.160156 2.238281 -4.265625 2.71875 -4.265625 C 3.125 -4.265625 3.472656 -4.1875 3.765625 -4.03125 C 4.066406 -3.882812 4.300781 -3.671875 4.46875 -3.390625 C 4.632812 -3.109375 4.71875 -2.785156 4.71875 -2.421875 Z M 2.65625 -3.359375 C 2.375 -3.359375 2.132812 -3.28125 1.9375 -3.125 C 1.738281 -2.96875 1.597656 -2.753906 1.515625 -2.484375 L 3.59375 -2.484375 C 3.59375 -2.753906 3.507812 -2.96875 3.34375 -3.125 C 3.175781 -3.28125 2.945312 -3.359375 2.65625 -3.359375 Z M 2.65625 -3.359375 "/></g></g></g><g fill="#ffffff" fill-opacity="1"><g transform="translate(62.017098, 58.101949)"><g><path d="M 1.3125 -5.796875 L 2.53125 -5.796875 L 1.375 0 L 0.15625 0 Z M 1.3125 -5.796875 "/></g></g></g><g fill="#ffffff" fill-opacity="1"><g transform="translate(65.058453, 58.101949)"><g><path d="M 2.34375 0.0625 C 1.925781 0.0625 1.554688 -0.015625 1.234375 -0.171875 C 0.910156 -0.328125 0.660156 -0.546875 0.484375 -0.828125 C 0.316406 -1.117188 0.234375 -1.453125 0.234375 -1.828125 C 0.234375 -2.285156 0.34375 -2.695312 0.5625 -3.0625 C 0.78125 -3.4375 1.082031 -3.726562 1.46875 -3.9375 C 1.851562 -4.15625 2.285156 -4.265625 2.765625 -4.265625 C 3.191406 -4.265625 3.5625 -4.1875 3.875 -4.03125 C 4.195312 -3.875 4.445312 -3.65625 4.625 -3.375 C 4.800781 -3.09375 4.890625 -2.765625 4.890625 -2.390625 C 4.890625 -1.921875 4.78125 -1.5 4.5625 -1.125 C 4.34375 -0.757812 4.039062 -0.46875 3.65625 -0.25 C 3.269531 -0.0390625 2.832031 0.0625 2.34375 0.0625 Z M 2.421875 -0.953125 C 2.660156 -0.953125 2.875 -1.007812 3.0625 -1.125 C 3.25 -1.238281 3.394531 -1.398438 3.5 -1.609375 C 3.601562 -1.816406 3.65625 -2.054688 3.65625 -2.328125 C 3.65625 -2.617188 3.570312 -2.847656 3.40625 -3.015625 C 3.238281 -3.179688 3.003906 -3.265625 2.703125 -3.265625 C 2.460938 -3.265625 2.25 -3.203125 2.0625 -3.078125 C 1.875 -2.960938 1.726562 -2.800781 1.625 -2.59375 C 1.519531 -2.382812 1.46875 -2.144531 1.46875 -1.875 C 1.46875 -1.59375 1.550781 -1.367188 1.71875 -1.203125 C 1.882812 -1.035156 2.117188 -0.953125 2.421875 -0.953125 Z M 2.421875 -0.953125 "/></g></g></g><g fill="#ffffff" fill-opacity="1"><g transform="translate(70.85953, 58.101949)"><g><path d="M 3.34375 -4.265625 C 3.675781 -4.265625 3.976562 -4.1875 4.25 -4.03125 C 4.53125 -3.882812 4.753906 -3.671875 4.921875 -3.390625 C 5.085938 -3.109375 5.171875 -2.773438 5.171875 -2.390625 C 5.171875 -1.921875 5.066406 -1.5 4.859375 -1.125 C 4.648438 -0.757812 4.367188 -0.46875 4.015625 -0.25 C 3.660156 -0.0390625 3.269531 0.0625 2.84375 0.0625 C 2.195312 0.0625 1.742188 -0.144531 1.484375 -0.5625 L 1.0625 1.515625 L -0.15625 1.515625 L 0.984375 -4.203125 L 2.140625 -4.203125 L 2.0625 -3.796875 C 2.40625 -4.109375 2.832031 -4.265625 3.34375 -4.265625 Z M 2.703125 -0.953125 C 2.941406 -0.953125 3.15625 -1.007812 3.34375 -1.125 C 3.53125 -1.238281 3.675781 -1.398438 3.78125 -1.609375 C 3.882812 -1.816406 3.9375 -2.054688 3.9375 -2.328125 C 3.9375 -2.617188 3.847656 -2.847656 3.671875 -3.015625 C 3.503906 -3.179688 3.269531 -3.265625 2.96875 -3.265625 C 2.738281 -3.265625 2.53125 -3.203125 2.34375 -3.078125 C 2.15625 -2.960938 2.007812 -2.800781 1.90625 -2.59375 C 1.800781 -2.382812 1.75 -2.144531 1.75 -1.875 C 1.75 -1.59375 1.832031 -1.367188 2 -1.203125 C 2.164062 -1.035156 2.398438 -0.953125 2.703125 -0.953125 Z M 2.703125 -0.953125 "/></g></g></g><g fill="#ffffff" fill-opacity="1"><g transform="translate(76.942048, 58.101949)"><g><path d="M 4.71875 -2.421875 C 4.71875 -2.222656 4.691406 -2.007812 4.640625 -1.78125 L 1.421875 -1.78125 C 1.460938 -1.207031 1.828125 -0.921875 2.515625 -0.921875 C 2.722656 -0.921875 2.925781 -0.953125 3.125 -1.015625 C 3.320312 -1.085938 3.492188 -1.1875 3.640625 -1.3125 L 4.140625 -0.5 C 3.910156 -0.3125 3.644531 -0.171875 3.34375 -0.078125 C 3.039062 0.015625 2.722656 0.0625 2.390625 0.0625 C 1.953125 0.0625 1.570312 -0.015625 1.25 -0.171875 C 0.925781 -0.328125 0.675781 -0.546875 0.5 -0.828125 C 0.320312 -1.117188 0.234375 -1.453125 0.234375 -1.828125 C 0.234375 -2.285156 0.335938 -2.703125 0.546875 -3.078125 C 0.765625 -3.453125 1.0625 -3.742188 1.4375 -3.953125 C 1.8125 -4.160156 2.238281 -4.265625 2.71875 -4.265625 C 3.125 -4.265625 3.472656 -4.1875 3.765625 -4.03125 C 4.066406 -3.882812 4.300781 -3.671875 4.46875 -3.390625 C 4.632812 -3.109375 4.71875 -2.785156 4.71875 -2.421875 Z M 2.65625 -3.359375 C 2.375 -3.359375 2.132812 -3.28125 1.9375 -3.125 C 1.738281 -2.96875 1.597656 -2.753906 1.515625 -2.484375 L 3.59375 -2.484375 C 3.59375 -2.753906 3.507812 -2.96875 3.34375 -3.125 C 3.175781 -3.28125 2.945312 -3.359375 2.65625 -3.359375 Z M 2.65625 -3.359375 "/></g></g></g><g fill="#ffffff" fill-opacity="1"><g transform="translate(82.539858, 58.101949)"><g><path d="M 2.046875 -3.703125 C 2.222656 -3.898438 2.441406 -4.039062 2.703125 -4.125 C 2.960938 -4.21875 3.265625 -4.265625 3.609375 -4.265625 L 3.390625 -3.140625 C 3.242188 -3.148438 3.148438 -3.15625 3.109375 -3.15625 C 2.742188 -3.15625 2.445312 -3.0625 2.21875 -2.875 C 2 -2.695312 1.851562 -2.414062 1.78125 -2.03125 L 1.375 0 L 0.15625 0 L 0.984375 -4.203125 L 2.140625 -4.203125 Z M 2.046875 -3.703125 "/></g></g></g></svg>