<svg xmlns="http://www.w3.org/2000/svg" xmlns:xlink="http://www.w3.org/1999/xlink" width="500" zoomAndPan="magnify" viewBox="0 0 375 299.999988" height="400" preserveAspectRatio="xMidYMid meet" version="1.0"><defs><g/><clipPath id="2bbac7c654"><path d="M 0 92.242188 L 375 92.242188 L 375 130.894531 L 0 130.894531 Z M 0 92.242188 " clip-rule="nonzero"/></clipPath><clipPath id="adb50ca730"><path d="M 0 85.101562 L 375 85.101562 L 375 130.894531 L 0 130.894531 Z M 0 85.101562 " clip-rule="nonzero"/></clipPath></defs><rect x="-37.5" width="450" fill="#ffffff" y="-29.999999" height="359.999986" fill-opacity="1"/><rect x="-37.5" width="450" fill="#000029" y="-29.999999" height="359.999986" fill-opacity="1"/><g fill="#ffffff" fill-opacity="1"><g transform="translate(37.432576, 179.086943)"><g><path d="M 35.484375 -140.625 L 35.484375 -148.234375 L 107.34375 -148.234375 L 107.34375 -140.625 C 96.382812 -140.488281 89.6875 -139.5 87.25 -137.65625 C 84.8125 -135.820312 83.59375 -132.03125 83.59375 -126.28125 L 83.59375 -42.5 C 83.59375 -27.457031 79.695312 -15.796875 71.90625 -7.515625 C 64.125 0.765625 53.21875 4.90625 39.1875 4.90625 C 28.695312 4.90625 20.226562 2.117188 13.78125 -3.453125 C 7.332031 -9.035156 4.109375 -16.367188 4.109375 -25.453125 C 4.109375 -31.597656 5.84375 -36.691406 9.3125 -40.734375 C 12.789062 -44.785156 17.132812 -46.8125 22.34375 -46.8125 C 26.019531 -46.8125 29.09375 -45.472656 31.5625 -42.796875 C 34.039062 -40.117188 35.28125 -36.8125 35.28125 -32.875 C 35.28125 -29.0625 34.023438 -25.921875 31.515625 -23.453125 C 29.015625 -20.984375 25.828125 -19.75 21.953125 -19.75 C 21.484375 -19.75 20.546875 -19.878906 19.140625 -20.140625 C 17.734375 -20.410156 16.628906 -20.546875 15.828125 -20.546875 C 14.960938 -20.546875 14.363281 -20.34375 14.03125 -19.9375 C 13.695312 -19.539062 13.53125 -18.773438 13.53125 -17.640625 C 13.53125 -13.960938 15.851562 -10.488281 20.5 -7.21875 C 25.144531 -3.945312 30.570312 -2.3125 36.78125 -2.3125 C 45.664062 -2.3125 52.195312 -5.164062 56.375 -10.875 C 60.550781 -16.582031 62.640625 -25.6875 62.640625 -38.1875 L 62.640625 -126.28125 C 62.640625 -132.226562 61.300781 -136.101562 58.625 -137.90625 C 55.957031 -139.71875 48.242188 -140.625 35.484375 -140.625 Z M 35.484375 -140.625 "/></g></g></g><g fill="#ffffff" fill-opacity="1"><g transform="translate(165.550609, 179.086943)"><g><path d="M 45.609375 -58.328125 L 90.3125 -58.328125 L 67.953125 -124.1875 Z M -1.203125 0 L -1.203125 -7.625 L -0.59375 -7.625 C 6.21875 -7.625 11.675781 -9.359375 15.78125 -12.828125 C 19.894531 -16.304688 23.453125 -22.285156 26.453125 -30.765625 L 68.953125 -151.046875 L 79.875 -151.046875 L 123.78125 -23.15625 C 125.851562 -17.070312 128.640625 -12.960938 132.140625 -10.828125 C 135.648438 -8.691406 141.21875 -7.625 148.84375 -7.625 L 148.84375 0 L 81.28125 0 L 81.28125 -7.625 L 89.296875 -8.015625 C 95.453125 -8.347656 99.476562 -9.03125 101.375 -10.0625 C 103.28125 -11.101562 104.234375 -12.894531 104.234375 -15.4375 C 104.234375 -16.101562 104.179688 -16.769531 104.078125 -17.4375 C 103.984375 -18.101562 103.835938 -18.738281 103.640625 -19.34375 L 93.609375 -48.609375 L 42.296875 -48.609375 L 36.078125 -30.375 C 35.347656 -28.101562 34.796875 -26.113281 34.421875 -24.40625 C 34.054688 -22.695312 33.875 -21.273438 33.875 -20.140625 C 33.875 -15.867188 35.425781 -12.710938 38.53125 -10.671875 C 41.644531 -8.640625 46.507812 -7.625 53.125 -7.625 L 54.21875 -7.625 L 54.21875 0 Z M -1.203125 0 "/></g></g></g><g clip-path="url(#2bbac7c654)"><path fill="#000029" d="M -84.738281 92.242188 L 405.355469 92.242188 L 405.355469 130.894531 L -84.738281 130.894531 Z M -84.738281 92.242188 " fill-opacity="1" fill-rule="nonzero"/></g><g clip-path="url(#adb50ca730)"><path fill="#000029" d="M -84.738281 85.101562 L 405.410156 85.101562 L 405.410156 130.894531 L -84.738281 130.894531 Z M -84.738281 85.101562 " fill-opacity="1" fill-rule="nonzero"/></g><g fill="#ffffff" fill-opacity="1"><g transform="translate(14.726787, 120.361865)"><g><path d="M 7.0625 0.21875 C 5.570312 0.21875 4.191406 -0.101562 2.921875 -0.75 C 1.648438 -1.394531 0.613281 -2.316406 -0.1875 -3.515625 L 1.453125 -5.375 C 2.898438 -3.238281 4.78125 -2.171875 7.09375 -2.171875 C 10.332031 -2.171875 11.953125 -4.085938 11.953125 -7.921875 L 11.953125 -23.765625 L 2.390625 -23.765625 L 2.390625 -26.15625 L 14.6875 -26.15625 L 14.6875 -8.03125 C 14.6875 -5.289062 14.046875 -3.226562 12.765625 -1.84375 C 11.484375 -0.46875 9.582031 0.21875 7.0625 0.21875 Z M 7.0625 0.21875 "/></g></g></g><g fill="#ffffff" fill-opacity="1"><g transform="translate(43.915401, 120.361865)"><g><path d="M 15.703125 0.21875 C 13.109375 0.21875 10.757812 -0.359375 8.65625 -1.515625 C 6.550781 -2.671875 4.90625 -4.257812 3.71875 -6.28125 C 2.53125 -8.300781 1.9375 -10.566406 1.9375 -13.078125 C 1.9375 -15.597656 2.53125 -17.863281 3.71875 -19.875 C 4.90625 -21.894531 6.550781 -23.484375 8.65625 -24.640625 C 10.757812 -25.804688 13.109375 -26.390625 15.703125 -26.390625 C 18.285156 -26.390625 20.617188 -25.816406 22.703125 -24.671875 C 24.785156 -23.523438 26.425781 -21.9375 27.625 -19.90625 C 28.820312 -17.875 29.421875 -15.597656 29.421875 -13.078125 C 29.421875 -10.566406 28.820312 -8.296875 27.625 -6.265625 C 26.425781 -4.234375 24.785156 -2.644531 22.703125 -1.5 C 20.617188 -0.351562 18.285156 0.21875 15.703125 0.21875 Z M 15.703125 -2.25 C 17.765625 -2.25 19.628906 -2.710938 21.296875 -3.640625 C 22.972656 -4.578125 24.28125 -5.875 25.21875 -7.53125 C 26.164062 -9.1875 26.640625 -11.035156 26.640625 -13.078125 C 26.640625 -15.117188 26.164062 -16.96875 25.21875 -18.625 C 24.28125 -20.28125 22.972656 -21.578125 21.296875 -22.515625 C 19.628906 -23.453125 17.765625 -23.921875 15.703125 -23.921875 C 13.628906 -23.921875 11.75 -23.453125 10.0625 -22.515625 C 8.382812 -21.578125 7.066406 -20.28125 6.109375 -18.625 C 5.148438 -16.96875 4.671875 -15.117188 4.671875 -13.078125 C 4.671875 -11.035156 5.148438 -9.1875 6.109375 -7.53125 C 7.066406 -5.875 8.382812 -4.578125 10.0625 -3.640625 C 11.75 -2.710938 13.628906 -2.25 15.703125 -2.25 Z M 15.703125 -2.25 "/></g></g></g><g fill="#ffffff" fill-opacity="1"><g transform="translate(85.735431, 120.361865)"><g><path d="M 22.765625 -2.390625 L 22.765625 0 L 4.265625 0 L 4.265625 -26.15625 L 22.203125 -26.15625 L 22.203125 -23.765625 L 7.03125 -23.765625 L 7.03125 -14.46875 L 20.5625 -14.46875 L 20.5625 -12.109375 L 7.03125 -12.109375 L 7.03125 -2.390625 Z M 22.765625 -2.390625 "/></g></g></g><g fill="#ffffff" fill-opacity="1"><g transform="translate(121.202379, 120.361865)"><g/></g></g><g fill="#ffffff" fill-opacity="1"><g transform="translate(141.459313, 120.361865)"><g><path d="M 20.671875 -6.984375 L 6.09375 -6.984375 L 2.953125 0 L 0.078125 0 L 12.03125 -26.15625 L 14.765625 -26.15625 L 26.71875 0 L 23.8125 0 Z M 19.65625 -9.234375 L 13.375 -23.28125 L 7.09375 -9.234375 Z M 19.65625 -9.234375 "/></g></g></g><g fill="#ffffff" fill-opacity="1"><g transform="translate(178.720071, 120.361865)"><g><path d="M 22.6875 -13.078125 L 25.34375 -13.078125 L 25.34375 -3.109375 C 24.125 -2.035156 22.675781 -1.210938 21 -0.640625 C 19.332031 -0.0664062 17.578125 0.21875 15.734375 0.21875 C 13.117188 0.21875 10.765625 -0.351562 8.671875 -1.5 C 6.578125 -2.644531 4.929688 -4.234375 3.734375 -6.265625 C 2.535156 -8.296875 1.9375 -10.566406 1.9375 -13.078125 C 1.9375 -15.597656 2.535156 -17.875 3.734375 -19.90625 C 4.929688 -21.9375 6.578125 -23.523438 8.671875 -24.671875 C 10.765625 -25.816406 13.128906 -26.390625 15.765625 -26.390625 C 17.765625 -26.390625 19.597656 -26.070312 21.265625 -25.4375 C 22.929688 -24.800781 24.335938 -23.859375 25.484375 -22.609375 L 23.765625 -20.859375 C 21.703125 -22.898438 19.078125 -23.921875 15.890625 -23.921875 C 13.765625 -23.921875 11.847656 -23.453125 10.140625 -22.515625 C 8.441406 -21.578125 7.101562 -20.28125 6.125 -18.625 C 5.15625 -16.96875 4.671875 -15.117188 4.671875 -13.078125 C 4.671875 -11.035156 5.15625 -9.191406 6.125 -7.546875 C 7.101562 -5.898438 8.4375 -4.601562 10.125 -3.65625 C 11.820312 -2.71875 13.726562 -2.25 15.84375 -2.25 C 18.539062 -2.25 20.820312 -2.921875 22.6875 -4.265625 Z M 22.6875 -13.078125 "/></g></g></g><g fill="#ffffff" fill-opacity="1"><g transform="translate(218.07361, 120.361865)"><g><path d="M 14.796875 0.21875 C 11.410156 0.21875 8.769531 -0.75 6.875 -2.6875 C 4.976562 -4.632812 4.03125 -7.460938 4.03125 -11.171875 L 4.03125 -26.15625 L 6.796875 -26.15625 L 6.796875 -11.28125 C 6.796875 -8.25 7.476562 -5.984375 8.84375 -4.484375 C 10.21875 -2.992188 12.203125 -2.25 14.796875 -2.25 C 17.410156 -2.25 19.40625 -2.992188 20.78125 -4.484375 C 22.15625 -5.984375 22.84375 -8.25 22.84375 -11.28125 L 22.84375 -26.15625 L 25.53125 -26.15625 L 25.53125 -11.171875 C 25.53125 -7.460938 24.585938 -4.632812 22.703125 -2.6875 C 20.828125 -0.75 18.191406 0.21875 14.796875 0.21875 Z M 14.796875 0.21875 "/></g></g></g><g fill="#ffffff" fill-opacity="1"><g transform="translate(258.137198, 120.361865)"><g><path d="M 20.671875 -6.984375 L 6.09375 -6.984375 L 2.953125 0 L 0.078125 0 L 12.03125 -26.15625 L 14.765625 -26.15625 L 26.71875 0 L 23.8125 0 Z M 19.65625 -9.234375 L 13.375 -23.28125 L 7.09375 -9.234375 Z M 19.65625 -9.234375 "/></g></g></g><g fill="#ffffff" fill-opacity="1"><g transform="translate(295.397967, 120.361865)"><g><path d="M 4.265625 -26.15625 L 14.90625 -26.15625 C 17.675781 -26.15625 20.117188 -25.601562 22.234375 -24.5 C 24.359375 -23.394531 26.003906 -21.847656 27.171875 -19.859375 C 28.335938 -17.878906 28.921875 -15.617188 28.921875 -13.078125 C 28.921875 -10.535156 28.335938 -8.273438 27.171875 -6.296875 C 26.003906 -4.316406 24.359375 -2.769531 22.234375 -1.65625 C 20.117188 -0.550781 17.675781 0 14.90625 0 L 4.265625 0 Z M 14.765625 -2.390625 C 17.054688 -2.390625 19.0625 -2.84375 20.78125 -3.75 C 22.5 -4.664062 23.832031 -5.925781 24.78125 -7.53125 C 25.726562 -9.132812 26.203125 -10.984375 26.203125 -13.078125 C 26.203125 -15.171875 25.726562 -17.019531 24.78125 -18.625 C 23.832031 -20.238281 22.5 -21.5 20.78125 -22.40625 C 19.0625 -23.3125 17.054688 -23.765625 14.765625 -23.765625 L 7.03125 -23.765625 L 7.03125 -2.390625 Z M 14.765625 -2.390625 "/></g></g></g><g fill="#ffffff" fill-opacity="1"><g transform="translate(336.732169, 120.361865)"><g><path d="M 15.703125 0.21875 C 13.109375 0.21875 10.757812 -0.359375 8.65625 -1.515625 C 6.550781 -2.671875 4.90625 -4.257812 3.71875 -6.28125 C 2.53125 -8.300781 1.9375 -10.566406 1.9375 -13.078125 C 1.9375 -15.597656 2.53125 -17.863281 3.71875 -19.875 C 4.90625 -21.894531 6.550781 -23.484375 8.65625 -24.640625 C 10.757812 -25.804688 13.109375 -26.390625 15.703125 -26.390625 C 18.285156 -26.390625 20.617188 -25.816406 22.703125 -24.671875 C 24.785156 -23.523438 26.425781 -21.9375 27.625 -19.90625 C 28.820312 -17.875 29.421875 -15.597656 29.421875 -13.078125 C 29.421875 -10.566406 28.820312 -8.296875 27.625 -6.265625 C 26.425781 -4.234375 24.785156 -2.644531 22.703125 -1.5 C 20.617188 -0.351562 18.285156 0.21875 15.703125 0.21875 Z M 15.703125 -2.25 C 17.765625 -2.25 19.628906 -2.710938 21.296875 -3.640625 C 22.972656 -4.578125 24.28125 -5.875 25.21875 -7.53125 C 26.164062 -9.1875 26.640625 -11.035156 26.640625 -13.078125 C 26.640625 -15.117188 26.164062 -16.96875 25.21875 -18.625 C 24.28125 -20.28125 22.972656 -21.578125 21.296875 -22.515625 C 19.628906 -23.453125 17.765625 -23.921875 15.703125 -23.921875 C 13.628906 -23.921875 11.75 -23.453125 10.0625 -22.515625 C 8.382812 -21.578125 7.066406 -20.28125 6.109375 -18.625 C 5.148438 -16.96875 4.671875 -15.117188 4.671875 -13.078125 C 4.671875 -11.035156 5.148438 -9.1875 6.109375 -7.53125 C 7.066406 -5.875 8.382812 -4.578125 10.0625 -3.640625 C 11.75 -2.710938 13.628906 -2.25 15.703125 -2.25 Z M 15.703125 -2.25 "/></g></g></g><g fill="#ffffff" fill-opacity="1"><g transform="translate(23.941723, 259.199964)"><g><path d="M 7.515625 0.5 C 5.273438 0.5 3.34375 0.125 1.71875 -0.625 C 0.09375 -1.382812 -1.164062 -2.476562 -2.0625 -3.90625 L 2.4375 -8.1875 C 3.726562 -6.113281 5.453125 -5.078125 7.609375 -5.078125 C 10.234375 -5.078125 11.851562 -6.601562 12.46875 -9.65625 L 15.28125 -23.9375 L 5 -23.9375 L 6.09375 -29.40625 L 23.140625 -29.40625 L 19.234375 -10 C 18.503906 -6.25 17.1875 -3.5625 15.28125 -1.9375 C 13.382812 -0.3125 10.796875 0.5 7.515625 0.5 Z M 7.515625 0.5 "/></g></g></g><g fill="#ffffff" fill-opacity="1"><g transform="translate(50.353311, 259.199964)"><g><path d="M 11.46875 0.5 C 9.144531 0.5 6.914062 0.191406 4.78125 -0.421875 C 2.65625 -1.035156 0.945312 -1.816406 -0.34375 -2.765625 L 2.4375 -8.015625 C 3.78125 -7.035156 5.289062 -6.28125 6.96875 -5.75 C 8.644531 -5.21875 10.367188 -4.953125 12.140625 -4.953125 C 14.015625 -4.953125 15.5 -5.257812 16.59375 -5.875 C 17.6875 -6.488281 18.234375 -7.332031 18.234375 -8.40625 C 18.234375 -9.269531 17.796875 -9.929688 16.921875 -10.390625 C 16.054688 -10.859375 14.671875 -11.359375 12.765625 -11.890625 C 10.859375 -12.441406 9.300781 -12.976562 8.09375 -13.5 C 6.894531 -14.019531 5.851562 -14.796875 4.96875 -15.828125 C 4.09375 -16.867188 3.65625 -18.242188 3.65625 -19.953125 C 3.65625 -21.941406 4.207031 -23.691406 5.3125 -25.203125 C 6.414062 -26.710938 7.984375 -27.875 10.015625 -28.6875 C 12.046875 -29.5 14.40625 -29.90625 17.09375 -29.90625 C 19.082031 -29.90625 20.957031 -29.6875 22.71875 -29.25 C 24.488281 -28.820312 26.003906 -28.203125 27.265625 -27.390625 L 24.703125 -22.171875 C 23.609375 -22.929688 22.375 -23.5 21 -23.875 C 19.625 -24.25 18.195312 -24.4375 16.71875 -24.4375 C 14.78125 -24.4375 13.25 -24.097656 12.125 -23.421875 C 11.007812 -22.753906 10.453125 -21.890625 10.453125 -20.828125 C 10.453125 -20.179688 10.691406 -19.640625 11.171875 -19.203125 C 11.648438 -18.773438 12.25 -18.425781 12.96875 -18.15625 C 13.695312 -17.894531 14.722656 -17.582031 16.046875 -17.21875 C 17.921875 -16.71875 19.457031 -16.207031 20.65625 -15.6875 C 21.863281 -15.164062 22.894531 -14.40625 23.75 -13.40625 C 24.601562 -12.414062 25.03125 -11.109375 25.03125 -9.484375 C 25.03125 -7.472656 24.46875 -5.71875 23.34375 -4.21875 C 22.226562 -2.71875 20.648438 -1.554688 18.609375 -0.734375 C 16.566406 0.0859375 14.1875 0.5 11.46875 0.5 Z M 11.46875 0.5 "/></g></g></g><g fill="#ffffff" fill-opacity="1"><g transform="translate(80.837749, 259.199964)"><g/></g></g><g fill="#ffffff" fill-opacity="1"><g transform="translate(96.416384, 259.199964)"><g><path d="M 7.09375 -29.40625 L 19.40625 -29.40625 C 22.394531 -29.40625 24.972656 -28.90625 27.140625 -27.90625 C 29.316406 -26.914062 30.984375 -25.492188 32.140625 -23.640625 C 33.304688 -21.796875 33.890625 -19.628906 33.890625 -17.140625 C 33.890625 -13.722656 33.117188 -10.71875 31.578125 -8.125 C 30.046875 -5.53125 27.898438 -3.523438 25.140625 -2.109375 C 22.378906 -0.703125 19.191406 0 15.578125 0 L 1.21875 0 Z M 15.796875 -5.59375 C 18.085938 -5.59375 20.078125 -6.070312 21.765625 -7.03125 C 23.460938 -8 24.757812 -9.328125 25.65625 -11.015625 C 26.550781 -12.710938 27 -14.628906 27 -16.765625 C 27 -18.972656 26.285156 -20.695312 24.859375 -21.9375 C 23.429688 -23.1875 21.359375 -23.8125 18.640625 -23.8125 L 12.8125 -23.8125 L 9.15625 -5.59375 Z M 15.796875 -5.59375 "/></g></g></g><g fill="#ffffff" fill-opacity="1"><g transform="translate(134.7946, 259.199964)"><g><path d="M 25.328125 -12.984375 C 25.328125 -11.941406 25.203125 -10.789062 24.953125 -9.53125 L 7.640625 -9.53125 C 7.867188 -6.445312 9.816406 -4.90625 13.484375 -4.90625 C 14.628906 -4.90625 15.726562 -5.085938 16.78125 -5.453125 C 17.832031 -5.816406 18.75 -6.335938 19.53125 -7.015625 L 22.265625 -2.6875 C 21.003906 -1.675781 19.5625 -0.914062 17.9375 -0.40625 C 16.3125 0.09375 14.601562 0.34375 12.8125 0.34375 C 10.488281 0.34375 8.453125 -0.0664062 6.703125 -0.890625 C 4.953125 -1.722656 3.609375 -2.910156 2.671875 -4.453125 C 1.734375 -5.992188 1.265625 -7.769531 1.265625 -9.78125 C 1.265625 -12.28125 1.828125 -14.53125 2.953125 -16.53125 C 4.085938 -18.53125 5.660156 -20.097656 7.671875 -21.234375 C 9.691406 -22.367188 11.992188 -22.9375 14.578125 -22.9375 C 16.753906 -22.9375 18.648438 -22.53125 20.265625 -21.71875 C 21.878906 -20.90625 23.125 -19.738281 24 -18.21875 C 24.882812 -16.707031 25.328125 -14.960938 25.328125 -12.984375 Z M 14.28125 -18.015625 C 12.738281 -18.015625 11.4375 -17.601562 10.375 -16.78125 C 9.3125 -15.957031 8.554688 -14.816406 8.109375 -13.359375 L 19.3125 -13.359375 C 19.3125 -14.816406 18.859375 -15.957031 17.953125 -16.78125 C 17.046875 -17.601562 15.820312 -18.015625 14.28125 -18.015625 Z M 14.28125 -18.015625 "/></g></g></g><g fill="#ffffff" fill-opacity="1"><g transform="translate(164.859154, 259.199964)"><g><path d="M 27.71875 -22.59375 L 13.6875 0 L 6.9375 0 L 1.9375 -22.59375 L 8.40625 -22.59375 L 11.671875 -7.1875 L 21.171875 -22.59375 Z M 27.71875 -22.59375 "/></g></g></g><g fill="#ffffff" fill-opacity="1"><g transform="translate(193.664068, 259.199964)"><g><path d="M 25.328125 -12.984375 C 25.328125 -11.941406 25.203125 -10.789062 24.953125 -9.53125 L 7.640625 -9.53125 C 7.867188 -6.445312 9.816406 -4.90625 13.484375 -4.90625 C 14.628906 -4.90625 15.726562 -5.085938 16.78125 -5.453125 C 17.832031 -5.816406 18.75 -6.335938 19.53125 -7.015625 L 22.265625 -2.6875 C 21.003906 -1.675781 19.5625 -0.914062 17.9375 -0.40625 C 16.3125 0.09375 14.601562 0.34375 12.8125 0.34375 C 10.488281 0.34375 8.453125 -0.0664062 6.703125 -0.890625 C 4.953125 -1.722656 3.609375 -2.910156 2.671875 -4.453125 C 1.734375 -5.992188 1.265625 -7.769531 1.265625 -9.78125 C 1.265625 -12.28125 1.828125 -14.53125 2.953125 -16.53125 C 4.085938 -18.53125 5.660156 -20.097656 7.671875 -21.234375 C 9.691406 -22.367188 11.992188 -22.9375 14.578125 -22.9375 C 16.753906 -22.9375 18.648438 -22.53125 20.265625 -21.71875 C 21.878906 -20.90625 23.125 -19.738281 24 -18.21875 C 24.882812 -16.707031 25.328125 -14.960938 25.328125 -12.984375 Z M 14.28125 -18.015625 C 12.738281 -18.015625 11.4375 -17.601562 10.375 -16.78125 C 9.3125 -15.957031 8.554688 -14.816406 8.109375 -13.359375 L 19.3125 -13.359375 C 19.3125 -14.816406 18.859375 -15.957031 17.953125 -16.78125 C 17.046875 -17.601562 15.820312 -18.015625 14.28125 -18.015625 Z M 14.28125 -18.015625 "/></g></g></g><g fill="#ffffff" fill-opacity="1"><g transform="translate(223.728633, 259.199964)"><g><path d="M 7.015625 -31.15625 L 13.5625 -31.15625 L 7.34375 0 L 0.796875 0 Z M 7.015625 -31.15625 "/></g></g></g><g fill="#ffffff" fill-opacity="1"><g transform="translate(240.063058, 259.199964)"><g><path d="M 12.59375 0.34375 C 10.332031 0.34375 8.335938 -0.078125 6.609375 -0.921875 C 4.890625 -1.765625 3.5625 -2.945312 2.625 -4.46875 C 1.6875 -6 1.21875 -7.769531 1.21875 -9.78125 C 1.21875 -12.28125 1.804688 -14.519531 2.984375 -16.5 C 4.160156 -18.488281 5.785156 -20.054688 7.859375 -21.203125 C 9.929688 -22.359375 12.269531 -22.9375 14.875 -22.9375 C 17.164062 -22.9375 19.164062 -22.515625 20.875 -21.671875 C 22.582031 -20.828125 23.90625 -19.640625 24.84375 -18.109375 C 25.78125 -16.585938 26.25 -14.820312 26.25 -12.8125 C 26.25 -10.320312 25.664062 -8.082031 24.5 -6.09375 C 23.34375 -4.101562 21.71875 -2.53125 19.625 -1.375 C 17.539062 -0.226562 15.195312 0.34375 12.59375 0.34375 Z M 13.015625 -5.078125 C 14.273438 -5.078125 15.410156 -5.390625 16.421875 -6.015625 C 17.429688 -6.648438 18.210938 -7.523438 18.765625 -8.640625 C 19.328125 -9.765625 19.609375 -11.054688 19.609375 -12.515625 C 19.609375 -14.054688 19.160156 -15.273438 18.265625 -16.171875 C 17.367188 -17.066406 16.109375 -17.515625 14.484375 -17.515625 C 13.203125 -17.515625 12.054688 -17.195312 11.046875 -16.5625 C 10.035156 -15.9375 9.25 -15.0625 8.6875 -13.9375 C 8.132812 -12.820312 7.859375 -11.535156 7.859375 -10.078125 C 7.859375 -8.535156 8.3125 -7.316406 9.21875 -6.421875 C 10.125 -5.523438 11.390625 -5.078125 13.015625 -5.078125 Z M 13.015625 -5.078125 "/></g></g></g><g fill="#ffffff" fill-opacity="1"><g transform="translate(271.219321, 259.199964)"><g><path d="M 17.96875 -22.9375 C 19.738281 -22.9375 21.367188 -22.53125 22.859375 -21.71875 C 24.359375 -20.90625 25.550781 -19.734375 26.4375 -18.203125 C 27.320312 -16.679688 27.765625 -14.882812 27.765625 -12.8125 C 27.765625 -10.320312 27.207031 -8.070312 26.09375 -6.0625 C 24.988281 -4.0625 23.484375 -2.492188 21.578125 -1.359375 C 19.679688 -0.222656 17.570312 0.34375 15.25 0.34375 C 11.800781 0.34375 9.363281 -0.78125 7.9375 -3.03125 L 5.71875 8.140625 L -0.84375 8.140625 L 5.296875 -22.59375 L 11.515625 -22.59375 L 11.046875 -20.375 C 12.921875 -22.082031 15.226562 -22.9375 17.96875 -22.9375 Z M 14.484375 -5.078125 C 15.773438 -5.078125 16.925781 -5.390625 17.9375 -6.015625 C 18.945312 -6.648438 19.726562 -7.523438 20.28125 -8.640625 C 20.84375 -9.765625 21.125 -11.054688 21.125 -12.515625 C 21.125 -14.054688 20.664062 -15.273438 19.75 -16.171875 C 18.84375 -17.066406 17.578125 -17.515625 15.953125 -17.515625 C 14.691406 -17.515625 13.554688 -17.195312 12.546875 -16.5625 C 11.546875 -15.9375 10.765625 -15.0625 10.203125 -13.9375 C 9.640625 -12.820312 9.359375 -11.535156 9.359375 -10.078125 C 9.359375 -8.535156 9.804688 -7.316406 10.703125 -6.421875 C 11.597656 -5.523438 12.859375 -5.078125 14.484375 -5.078125 Z M 14.484375 -5.078125 "/></g></g></g><g fill="#ffffff" fill-opacity="1"><g transform="translate(303.887142, 259.199964)"><g><path d="M 25.328125 -12.984375 C 25.328125 -11.941406 25.203125 -10.789062 24.953125 -9.53125 L 7.640625 -9.53125 C 7.867188 -6.445312 9.816406 -4.90625 13.484375 -4.90625 C 14.628906 -4.90625 15.726562 -5.085938 16.78125 -5.453125 C 17.832031 -5.816406 18.75 -6.335938 19.53125 -7.015625 L 22.265625 -2.6875 C 21.003906 -1.675781 19.5625 -0.914062 17.9375 -0.40625 C 16.3125 0.09375 14.601562 0.34375 12.8125 0.34375 C 10.488281 0.34375 8.453125 -0.0664062 6.703125 -0.890625 C 4.953125 -1.722656 3.609375 -2.910156 2.671875 -4.453125 C 1.734375 -5.992188 1.265625 -7.769531 1.265625 -9.78125 C 1.265625 -12.28125 1.828125 -14.53125 2.953125 -16.53125 C 4.085938 -18.53125 5.660156 -20.097656 7.671875 -21.234375 C 9.691406 -22.367188 11.992188 -22.9375 14.578125 -22.9375 C 16.753906 -22.9375 18.648438 -22.53125 20.265625 -21.71875 C 21.878906 -20.90625 23.125 -19.738281 24 -18.21875 C 24.882812 -16.707031 25.328125 -14.960938 25.328125 -12.984375 Z M 14.28125 -18.015625 C 12.738281 -18.015625 11.4375 -17.601562 10.375 -16.78125 C 9.3125 -15.957031 8.554688 -14.816406 8.109375 -13.359375 L 19.3125 -13.359375 C 19.3125 -14.816406 18.859375 -15.957031 17.953125 -16.78125 C 17.046875 -17.601562 15.820312 -18.015625 14.28125 -18.015625 Z M 14.28125 -18.015625 "/></g></g></g><g fill="#ffffff" fill-opacity="1"><g transform="translate(333.951707, 259.199964)"><g><path d="M 10.96875 -19.90625 C 11.945312 -20.96875 13.128906 -21.738281 14.515625 -22.21875 C 15.898438 -22.695312 17.53125 -22.9375 19.40625 -22.9375 L 18.234375 -16.890625 C 17.441406 -16.941406 16.9375 -16.96875 16.71875 -16.96875 C 14.726562 -16.96875 13.132812 -16.476562 11.9375 -15.5 C 10.75 -14.519531 9.945312 -12.992188 9.53125 -10.921875 L 7.34375 0 L 0.796875 0 L 5.296875 -22.59375 L 11.515625 -22.59375 Z M 10.96875 -19.90625 "/></g></g></g></svg>